<svg xmlns="http://www.w3.org/2000/svg" xmlns:xlink="http://www.w3.org/1999/xlink" width="48" zoomAndPan="magnify" viewBox="0 0 36 36.000001" height="48" preserveAspectRatio="xMidYMid meet" version="1.0"><defs><clipPath id="bda4114582"><path d="M 11 1.167969 L 34.492188 1.167969 L 34.492188 24 L 11 24 Z M 11 1.167969 " clip-rule="nonzero"/></clipPath><clipPath id="e31e6471fa"><path d="M 1.652344 5 L 30 5 L 30 34.003906 L 1.652344 34.003906 Z M 1.652344 5 " clip-rule="nonzero"/></clipPath></defs><g clip-path="url(#bda4114582)"><path fill="#000000" d="M 27.011719 1.777344 C 27.617188 1.171875 28.605469 1.171875 29.210938 1.777344 L 33.878906 6.449219 C 34.488281 7.054688 34.488281 8.042969 33.878906 8.648438 L 19.875 22.65625 C 19.636719 22.894531 19.328125 23.046875 18.992188 23.09375 L 13.546875 23.875 C 13.0625 23.941406 12.570312 23.78125 12.226562 23.433594 C 11.878906 23.085938 11.714844 22.597656 11.785156 22.113281 L 12.5625 16.667969 C 12.613281 16.332031 12.765625 16.023438 13.003906 15.785156 Z M 15.570312 17.621094 L 15.160156 20.5 L 18.039062 20.085938 L 30.578125 7.546875 L 28.109375 5.082031 Z M 15.570312 17.621094 " fill-opacity="1" fill-rule="evenodd"/></g><g clip-path="url(#e31e6471fa)"><path fill="#000000" d="M 7.101562 9.105469 C 5.8125 9.105469 4.765625 10.148438 4.765625 11.4375 L 4.765625 28.558594 C 4.765625 29.847656 5.8125 30.894531 7.101562 30.894531 L 24.21875 30.894531 C 25.507812 30.894531 26.554688 29.847656 26.554688 28.558594 L 26.554688 16.886719 L 29.667969 16.886719 L 29.667969 28.558594 C 29.667969 31.566406 27.230469 34.003906 24.21875 34.003906 L 7.101562 34.003906 C 4.09375 34.003906 1.652344 31.566406 1.652344 28.558594 L 1.652344 11.4375 C 1.652344 8.429688 4.09375 5.992188 7.101562 5.992188 L 18.773438 5.992188 L 18.773438 9.105469 Z M 7.101562 9.105469 " fill-opacity="1" fill-rule="evenodd"/></g></svg>