<?xml version="1.0" standalone="no"?>
<!DOCTYPE svg PUBLIC "-//W3C//DTD SVG 20010904//EN"
 "http://www.w3.org/TR/2001/REC-SVG-20010904/DTD/svg10.dtd">
<svg version="1.0" xmlns="http://www.w3.org/2000/svg"
 width="640.000000pt" height="640.000000pt" viewBox="0 0 640.000000 640.000000"
 preserveAspectRatio="xMidYMid meet">

<g transform="translate(0.000000,640.000000) scale(0.100000,-0.100000)"
fill="#000000" stroke="none">
<path d="M0 3200 l0 -3200 3200 0 3200 0 0 713 c-1 488 -4 707 -11 695 -14
-26 -29 -22 -29 7 0 20 -5 25 -25 25 -14 0 -25 -4 -25 -10 0 -5 -12 -10 -26
-10 -16 0 -24 -5 -21 -12 2 -7 12 -12 23 -10 14 2 19 -4 19 -23 0 -16 -5 -23
-12 -20 -17 6 -16 0 3 -33 16 -26 15 -26 -10 3 -16 19 -21 32 -14 36 15 10 1
29 -22 29 -10 0 -25 13 -34 30 -9 16 -23 43 -32 60 -22 42 -57 63 -159 95 -49
15 -106 33 -125 40 -19 7 -69 20 -110 30 -41 10 -84 24 -95 31 -20 13 -287
114 -400 152 -33 11 -112 45 -175 75 -63 30 -135 60 -159 67 -28 7 -40 15 -32
19 10 7 29 89 34 156 1 11 5 22 9 25 4 3 10 61 12 128 4 85 10 128 20 145 12
18 14 31 6 57 -5 19 -7 43 -4 53 6 18 12 85 18 172 1 22 5 47 8 55 4 8 9 78
12 155 3 77 8 181 12 232 6 80 4 99 -14 140 -11 26 -23 67 -27 91 -4 23 -12
48 -19 55 -16 16 -29 67 -17 67 13 0 2 253 -15 339 -8 40 -21 85 -28 100 -7
14 -16 46 -20 70 -4 24 -13 56 -21 70 -28 52 -65 138 -65 153 0 8 -9 23 -19
32 -11 10 -17 24 -14 32 4 10 0 12 -11 8 -10 -4 -16 -1 -16 8 0 8 -12 26 -27
40 -16 14 -36 34 -45 44 -40 44 -66 62 -110 79 -27 10 -48 23 -48 30 0 6 -12
22 -26 34 -21 18 -28 20 -35 10 -7 -11 -9 -11 -9 -1 0 9 -7 11 -20 7 -11 -3
-20 -2 -20 3 0 10 -115 37 -137 33 -7 -1 -13 5 -13 12 0 8 -6 17 -13 20 -9 3
-13 37 -15 123 -1 66 -4 133 -8 149 -9 49 -36 137 -51 173 -8 19 -16 46 -18
62 -2 15 -35 79 -73 141 -38 63 -80 136 -93 162 -21 44 -53 78 -132 145 -15
12 -31 22 -36 22 -5 0 -12 11 -15 25 -4 14 -12 25 -19 25 -7 0 -20 8 -28 18
-26 29 -74 68 -92 75 -9 3 -17 13 -17 21 0 7 -11 17 -24 20 -20 5 -25 12 -24
39 1 17 6 35 12 39 20 13 -1 19 -30 8 -20 -8 -25 -13 -15 -19 9 -6 10 -11 2
-15 -6 -4 -14 0 -17 8 -3 9 -14 16 -23 16 -9 0 -25 7 -35 15 -19 15 -19 15 1
15 12 0 25 -4 28 -10 8 -13 25 -13 25 -1 0 5 -13 12 -29 16 -22 5 -28 11 -24
22 6 14 7 14 18 -1 15 -20 35 -21 35 -2 0 8 5 27 11 43 7 20 12 24 18 14 6 -9
11 -10 15 -2 4 6 2 11 -3 11 -6 0 -11 11 -11 25 0 25 2 26 50 24 27 -2 51 -1
54 2 2 2 13 27 26 54 18 40 23 46 29 31 7 -18 8 -18 25 -1 14 14 15 20 4 26
-11 7 -11 10 0 21 11 11 16 10 26 -4 11 -15 29 -18 100 -18 l86 0 0 40 0 40
54 0 c29 0 66 7 82 15 25 13 30 13 46 -2 17 -15 20 -15 38 2 19 17 20 17 20 0
0 -14 6 -16 31 -11 17 3 35 6 40 6 19 0 8 28 -13 34 -22 7 -22 7 -3 15 12 5
23 4 26 -2 4 -6 33 -7 77 -3 47 5 72 3 77 -4 5 -8 11 -8 21 1 10 8 18 8 27 1
9 -8 20 -7 40 3 24 13 28 12 37 -6 12 -22 28 -17 39 13 7 19 10 18 44 -17 20
-21 37 -33 37 -28 0 6 9 13 20 16 26 7 26 24 0 32 -34 11 -22 25 20 25 33 0
40 3 40 20 0 16 7 20 38 20 29 0 39 -5 47 -22 14 -31 57 -31 70 0 9 21 15 23
90 20 71 -3 80 -5 83 -23 2 -18 -3 -20 -40 -19 -39 1 -40 1 -5 -3 28 -3 37 -9
37 -23 0 -23 11 -30 42 -30 70 2 113 -2 118 -10 3 -5 26 -10 50 -13 37 -3 33
-4 -20 -5 -53 -2 -67 -6 -78 -22 -11 -18 -10 -20 18 -20 20 0 30 -5 30 -15 0
-10 10 -15 33 -15 46 0 77 -10 77 -25 0 -15 35 -29 49 -21 5 4 19 -6 31 -21
12 -16 23 -23 26 -18 7 16 111 9 129 -8 11 -12 12 -17 2 -20 -18 -8 18 -8 37
-1 9 3 13 10 10 15 -3 5 4 9 15 9 24 0 36 -16 19 -23 -7 -3 2 -6 20 -6 17 -1
32 -5 32 -11 0 -5 18 -10 40 -10 29 0 40 -4 40 -15 0 -11 11 -15 40 -15 28 0
40 -4 40 -14 0 -10 22 -16 80 -21 58 -5 80 -11 80 -21 0 -9 13 -14 38 -15 20
-1 48 -4 62 -8 23 -6 24 -7 5 -15 -12 -4 -21 -3 -23 3 -8 25 -32 10 -32 -19 0
-26 4 -30 28 -30 54 0 104 -25 118 -60 8 -18 12 -36 9 -40 -3 -5 3 -16 12 -26
17 -17 18 -17 21 4 4 27 18 28 32 2 6 -11 19 -24 30 -30 20 -11 20 -6 20 340
l0 350 -720 0 c-477 0 -720 -3 -720 -10 0 -6 -8 -5 -20 2 -16 10 -24 10 -40 0
-12 -7 -20 -8 -20 -2 0 7 -806 10 -2440 10 l-2440 0 0 -3200z m5180 3139 c0
-20 -15 -26 -25 -9 -9 15 3 43 15 35 5 -3 10 -15 10 -26z m125 -9 c3 -5 -1
-10 -9 -10 -9 0 -16 5 -16 10 0 6 4 10 9 10 6 0 13 -4 16 -10z m-1388 -86 c-3
-3 -12 -4 -19 -1 -8 3 -5 6 6 6 11 1 17 -2 13 -5z m2010 -186 c-3 -8 -6 -5 -6
6 -1 11 2 17 5 13 3 -3 4 -12 1 -19z m70 -50 c-3 -8 -6 -5 -6 6 -1 11 2 17 5
13 3 -3 4 -12 1 -19z m-2562 -108 c3 -5 1 -10 -4 -10 -6 0 -11 5 -11 10 0 6 2
10 4 10 3 0 8 -4 11 -10z m55 -36 c0 -2 -7 -4 -15 -4 -8 0 -15 4 -15 10 0 5 7
7 15 4 8 -4 15 -8 15 -10z m-325 -481 c-6 -26 -5 -27 9 -9 8 10 19 15 25 11 6
-3 9 0 5 8 -4 11 9 14 65 13 49 -1 72 -5 76 -14 8 -21 -3 -32 -33 -33 -15 0
-22 -3 -15 -5 7 -3 9 -12 6 -20 -4 -11 5 -14 39 -14 56 0 101 -22 117 -56 9
-21 17 -25 37 -21 13 2 22 2 20 -1 -18 -18 93 -106 125 -99 7 1 14 -4 16 -10
3 -8 -4 -13 -16 -13 -12 0 -21 -4 -21 -10 0 -5 7 -10 15 -10 24 0 77 -61 65
-75 -6 -7 -8 -19 -5 -27 4 -10 -1 -17 -15 -21 -13 -3 -19 -10 -15 -16 3 -6 10
-9 15 -6 4 3 6 -4 3 -15 -3 -11 -10 -20 -15 -20 -6 0 -7 -8 -4 -17 4 -9 1 -20
-6 -25 -10 -6 -10 -10 1 -17 10 -6 12 -21 8 -49 -3 -27 -1 -42 7 -45 8 -3 7
-8 -3 -20 -11 -14 -11 -18 5 -23 29 -10 83 -74 77 -90 -3 -8 -14 -14 -24 -14
-33 0 -17 -43 26 -68 14 -8 15 -11 5 -11 -20 0 -52 24 -43 32 3 4 -5 7 -18 7
-19 0 -21 2 -9 10 10 6 4 9 -20 8 -19 -1 -38 -5 -42 -11 -3 -6 -22 -11 -41
-11 -19 -1 -42 -8 -51 -15 -9 -7 -16 -10 -16 -6 0 4 -6 2 -14 -4 -10 -8 -16
-9 -21 -1 -8 14 -34 13 -49 -2 -8 -7 -24 -20 -36 -28 -35 -23 -50 -40 -50 -56
0 -8 -4 -14 -10 -14 -12 0 -13 37 -2 42 12 4 25 58 14 58 -14 0 -42 -58 -36
-74 4 -11 1 -16 -10 -16 -18 0 -22 -25 -6 -35 18 -11 10 -33 -25 -71 -20 -20
-38 -47 -41 -60 -3 -12 -12 -25 -21 -28 -8 -3 -11 -10 -8 -16 3 -5 2 -10 -3
-10 -27 0 -16 -162 15 -226 9 -19 15 -59 14 -99 0 -69 11 -94 51 -108 10 -4
15 -12 12 -21 -3 -8 9 -30 30 -53 19 -21 36 -32 36 -25 0 23 25 12 47 -21 12
-17 25 -50 28 -72 5 -35 2 -44 -27 -78 -34 -38 -78 -51 -78 -22 0 8 9 15 19
15 31 0 33 16 6 34 -27 18 -105 22 -105 6 0 -5 -5 -10 -12 -10 -6 0 -26 -11
-44 -25 -18 -14 -39 -25 -47 -25 -7 0 -17 -3 -21 -7 -15 -16 -79 0 -133 33
-57 34 -106 44 -118 23 -4 -5 -19 -15 -33 -20 -46 -18 -3 -31 57 -18 49 10 54
9 119 -26 66 -37 67 -37 152 -31 91 8 113 8 201 6 66 -2 93 10 114 51 15 27
15 35 0 84 -8 30 -21 60 -28 67 -6 7 -21 29 -31 48 -11 19 -24 40 -28 45 -46
56 -46 56 -52 40 -3 -8 -10 -15 -17 -15 -6 0 -8 7 -5 17 8 19 -11 83 -24 83
-5 0 -14 10 -21 21 -9 17 -8 20 1 14 10 -6 11 -1 6 19 -7 30 9 36 19 6 4 -11
11 -18 16 -15 5 4 9 -3 9 -15 0 -11 7 -23 15 -26 8 -4 15 -12 15 -19 0 -7 7
-15 15 -19 19 -7 21 28 2 45 -7 7 -11 28 -10 48 2 32 1 33 -6 11 -9 -24 -9
-24 -10 8 -1 44 1 47 27 46 12 0 22 4 22 8 0 4 -4 8 -10 8 -5 0 -10 5 -10 10
0 12 -35 64 -63 93 -12 12 -17 27 -13 40 3 12 6 33 7 47 0 14 3 19 6 13 7 -20
20 -15 27 10 5 18 8 20 16 7 6 -9 10 -10 10 -3 0 6 8 14 18 17 10 4 28 15 40
27 12 11 22 15 22 9 0 -5 7 -10 15 -10 8 0 15 -4 15 -10 0 -5 -7 -10 -15 -10
-8 0 -15 5 -15 11 0 8 -5 8 -15 -1 -8 -7 -15 -19 -15 -27 0 -8 -18 -35 -40
-60 -40 -46 -48 -63 -30 -63 6 0 10 4 10 10 0 5 11 12 25 16 14 3 33 16 43 28
21 27 62 56 79 56 7 0 13 -11 13 -25 0 -15 7 -40 16 -57 l16 -30 -39 6 c-51 8
-132 11 -138 4 -3 -3 32 -8 78 -12 103 -8 142 -18 143 -37 2 -35 4 -36 57 -28
28 4 59 10 67 13 20 8 65 -38 55 -54 -6 -9 -10 -9 -16 1 -7 11 -9 10 -9 -3 0
-9 -6 -19 -12 -22 -7 -4 -4 -4 7 -2 66 16 104 36 146 79 36 36 55 47 78 47 17
0 31 -4 31 -10 0 -16 22 -12 36 8 11 14 13 14 14 2 0 -9 9 -23 20 -33 23 -20
26 -37 6 -37 -20 0 -29 -17 -21 -38 4 -9 8 -33 8 -52 -1 -19 3 -37 8 -40 13
-9 29 -170 22 -235 -3 -33 -6 -71 -6 -85 0 -14 -2 -19 -4 -12 -8 22 -23 13
-23 -15 -1 -16 -9 -46 -20 -68 -11 -22 -19 -50 -20 -62 0 -25 -15 -31 -24 -10
-4 8 -5 7 -4 -3 1 -8 -6 -31 -14 -50 -9 -19 -24 -52 -33 -73 -9 -21 -21 -35
-27 -31 -7 4 -8 -4 -4 -23 5 -23 3 -32 -8 -36 -10 -4 -13 -13 -9 -23 4 -11 -1
-22 -13 -31 -15 -11 -16 -17 -7 -32 10 -16 9 -21 -8 -33 -11 -7 -22 -28 -24
-48 -3 -19 -9 -36 -15 -38 -5 -2 -10 -9 -10 -15 0 -7 -14 -21 -30 -32 -16 -11
-30 -23 -30 -27 0 -5 -13 -8 -28 -8 -40 0 -88 -43 -84 -75 2 -14 -1 -25 -7
-25 -6 0 -11 -4 -11 -9 0 -14 -62 -81 -75 -81 -18 0 -76 -58 -64 -65 5 -4 8
-12 6 -18 -2 -7 0 -20 4 -29 6 -10 5 -19 -1 -23 -5 -3 -7 -20 -4 -38 4 -24 3
-28 -5 -17 -6 9 -11 10 -11 3 0 -6 -9 -15 -20 -18 -11 -3 -20 -12 -20 -18 0
-7 -11 -17 -25 -24 -20 -9 -25 -8 -25 3 0 8 -4 14 -10 14 -5 0 -10 -6 -10 -12
0 -9 -2 -10 -8 -2 -16 25 -80 -22 -68 -51 3 -8 1 -15 -4 -15 -6 0 -10 -7 -10
-15 0 -8 5 -15 10 -15 15 0 12 -36 -4 -49 -11 -9 -15 -9 -18 1 -4 10 -13 9
-42 -4 -42 -21 -73 -23 -78 -7 -2 6 -22 11 -43 10 -22 0 -69 -1 -104 -2 -52
-1 -67 2 -78 17 -7 10 -13 12 -13 6 0 -7 -9 -3 -20 8 -11 11 -20 24 -20 28 0
5 -18 18 -40 31 -22 12 -38 27 -35 32 4 5 -1 9 -9 9 -10 0 -16 9 -16 23 0 17
-2 19 -10 7 -7 -12 -10 -11 -16 5 -5 11 -19 30 -32 42 -14 13 -19 23 -12 23 8
0 11 9 8 25 -3 13 0 26 6 29 6 2 3 5 -6 5 -10 1 -18 -3 -18 -9 0 -5 -10 -10
-22 -10 -19 0 -20 2 -8 10 10 6 11 10 3 10 -35 0 -72 42 -79 91 -5 31 -13 40
-45 55 -21 11 -39 26 -39 35 0 9 -9 26 -20 39 -11 12 -17 27 -14 31 11 19 -8
48 -40 59 -24 7 -39 22 -52 50 -10 22 -22 40 -26 40 -3 0 -9 23 -13 50 -4 28
-10 50 -14 50 -11 0 -51 84 -51 108 0 12 -6 25 -13 29 -21 13 -49 64 -43 78 3
9 0 12 -10 8 -10 -3 -14 2 -14 17 0 13 -10 38 -22 57 -14 23 -22 55 -23 92 -2
31 -3 56 -5 56 -1 0 -4 9 -6 20 -7 28 -10 155 -4 155 8 0 5 54 -3 68 -5 7 -3
12 3 12 8 0 11 16 8 48 -3 33 0 50 11 58 12 9 12 17 3 40 -7 18 -8 42 -3 64
l8 35 8 -27 c9 -34 20 -35 48 -4 27 30 79 42 98 23 8 -7 20 -12 27 -9 6 2 12
-2 12 -8 0 -13 38 -10 72 5 13 5 20 1 28 -19 9 -24 30 -36 30 -17 0 13 62 23
74 11 12 -12 36 6 36 30 0 24 9 30 35 20 14 -5 26 -5 33 2 7 7 16 6 30 -1 14
-7 21 -8 24 -1 2 6 36 13 76 17 42 3 72 10 72 17 0 6 -9 26 -20 44 -19 30 -19
34 -4 49 12 13 13 17 2 24 -10 7 -9 9 5 9 9 0 17 4 17 9 0 6 12 6 30 1 46 -13
49 11 5 37 -11 6 -19 16 -17 23 1 6 -2 9 -7 6 -5 -4 -13 -1 -16 5 -4 6 -17 14
-29 19 -17 7 -15 9 17 9 20 1 37 3 37 5 0 1 -5 18 -12 36 -24 69 -104 121
-190 124 -27 0 -48 4 -48 7 0 4 -17 9 -37 13 -88 13 -113 19 -119 27 -3 5 -26
9 -52 9 -27 0 -42 4 -35 8 7 5 14 20 15 35 1 16 8 27 18 27 43 1 102 105 71
124 -6 4 -11 14 -11 22 0 8 4 13 9 10 11 -7 21 17 21 50 0 15 -6 24 -15 24 -9
0 -15 9 -15 23 0 12 -3 33 -7 46 -4 17 -3 22 5 17 7 -4 10 -2 8 6 -14 45 -16
69 -5 62 7 -4 9 -3 5 4 -8 14 53 114 65 106 5 -3 9 4 9 15 0 12 6 21 13 21 18
0 107 80 107 97 0 10 6 12 21 8 16 -5 27 0 43 19 19 23 24 25 61 16 59 -14 78
-13 71 5 -7 18 3 45 16 45 5 0 6 -5 3 -11 -5 -7 5 -8 29 -4 24 5 42 3 52 -6
14 -11 18 -11 28 3 7 10 21 17 32 17 36 1 89 14 109 27 26 18 26 18 20 -13z
m245 -22 c0 -14 -18 -23 -30 -16 -6 4 -8 11 -5 16 8 12 35 12 35 0z m425 -761
c3 -5 2 -10 -4 -10 -5 0 -13 5 -16 10 -3 6 -2 10 4 10 5 0 13 -4 16 -10z m432
-12 c-3 -8 -6 -5 -6 6 -1 11 2 17 5 13 3 -3 4 -12 1 -19z m-427 -162 c0 -8 4
-16 9 -18 12 -4 2 -58 -10 -58 -5 0 -9 4 -9 9 0 4 -19 5 -42 0 -24 -4 -47 -4
-52 1 -5 5 -16 4 -26 -2 -13 -8 -31 -7 -70 6 -43 14 -55 15 -61 4 -7 -10 -9
-9 -9 4 0 23 126 65 150 50 9 -5 23 -6 30 -2 7 5 22 3 33 -3 16 -10 21 -9 31
6 13 21 26 22 26 3z m-1289 -22 c8 -8 23 -14 32 -14 9 0 19 -4 22 -10 3 -5 20
-10 36 -10 56 0 25 -25 -41 -33 -50 -6 -66 -5 -80 8 -22 20 -40 19 -40 -2 0
-9 -3 -14 -6 -10 -3 3 -16 2 -29 -3 -18 -7 -25 -5 -29 7 -6 14 -8 14 -20 -3
-8 -10 -18 -16 -22 -12 -4 4 -23 -6 -43 -22 -47 -36 -83 -46 -99 -27 -14 17 0
67 18 67 6 0 8 5 5 10 -3 6 3 10 15 10 12 0 18 4 15 11 -11 16 27 39 46 28 13
-7 16 -5 12 9 -4 15 5 17 94 14 66 -3 103 -8 114 -18z m1380 -42 c2 2 -2 -3
-11 -10 -18 -15 -42 -12 -48 7 -3 10 0 12 12 8 12 -5 16 -1 16 16 l1 22 12
-23 c7 -12 15 -21 18 -20z m-371 7 c0 -5 -9 -9 -20 -9 -19 0 -26 11 -14 23 8
8 34 -3 34 -14z m-923 -65 c-10 -10 -97 -12 -97 -2 0 4 23 8 52 8 28 0 48 -3
45 -6z m973 -79 c0 -8 -4 -15 -10 -15 -5 0 -10 7 -10 15 0 8 5 15 10 15 6 0
10 -7 10 -15z m149 -11 c28 -32 22 -49 -24 -71 -41 -20 -53 -13 -31 19 9 12
16 35 16 50 0 35 10 35 39 2z m-1244 -77 c20 -29 19 -33 -7 -31 -79 5 -104 50
-55 98 l31 31 8 -38 c4 -21 15 -48 23 -60z m245 58 c22 -14 44 -33 47 -41 4
-11 9 -12 19 -3 11 9 14 7 14 -10 0 -19 -5 -21 -47 -19 -27 2 -67 -1 -91 -6
l-42 -8 21 36 c14 25 19 44 15 62 -8 31 0 30 64 -11z m-160 9 c0 -8 -4 -12
-10 -9 -5 3 -10 10 -10 16 0 5 5 9 10 9 6 0 10 -7 10 -16z m1704 -28 c-6 -16
-24 -23 -24 -8 0 10 22 33 27 28 2 -2 1 -11 -3 -20z m121 -69 c5 -71 3 -96
-16 -160 -24 -85 -39 -99 -39 -37 0 22 -4 40 -9 40 -5 0 -11 24 -13 53 -3 40
1 62 18 92 11 22 24 52 28 68 12 49 24 28 31 -56z m-2444 6 c6 -6 16 -10 24
-7 17 7 31 -34 16 -49 -8 -8 -11 -4 -12 13 0 14 -3 19 -6 13 -9 -23 -93 13
-93 39 0 13 60 5 71 -9z m-127 -10 c6 -15 8 -15 16 -3 8 13 12 12 30 -6 17
-16 21 -34 22 -95 1 -41 -2 -90 -6 -109 -5 -26 -4 -31 3 -20 6 8 11 27 11 42
0 15 5 30 10 33 6 3 10 16 10 28 0 12 5 29 10 37 9 13 14 11 34 -12 24 -27 25
-31 20 -160 -2 -73 -4 -137 -4 -143 0 -5 -5 -2 -11 8 -5 9 -19 17 -29 17 -17
0 -19 -5 -13 -32 5 -30 4 -32 -11 -18 -10 10 -18 44 -24 100 l-8 85 -10 -75
c-6 -41 -13 -68 -16 -60 -21 56 -63 293 -60 343 3 57 14 73 26 40z m1986 -53
c0 -5 -4 -10 -10 -10 -5 0 -10 5 -10 10 0 6 5 10 10 10 6 0 10 -4 10 -10z
m-1915 -411 c4 -11 5 -23 2 -25 -6 -6 -37 25 -37 37 0 18 29 9 35 -12z m99 -6
c27 -137 49 -293 41 -293 -16 0 -37 33 -42 65 -4 26 -10 34 -20 31 -8 -3 -11
-1 -8 4 3 6 -5 14 -19 20 -16 6 -24 15 -20 24 3 8 0 17 -6 21 -8 5 -8 10 0 20
9 11 8 20 -4 37 -20 28 -20 42 -1 34 8 -3 15 -1 15 4 0 5 7 7 15 4 11 -5 15 1
15 18 0 45 25 53 34 11z m1988 -445 c-7 -7 -12 -8 -12 -2 0 6 3 14 7 17 3 4 9
5 12 2 2 -3 -1 -11 -7 -17z m-92 -123 c0 -14 -4 -25 -10 -25 -11 0 -14 33 -3
43 11 11 13 8 13 -18z m-1235 -465 c3 -5 2 -10 -4 -10 -5 0 -13 5 -16 10 -3 6
-2 10 4 10 5 0 13 -4 16 -10z m1127 -412 c2 -23 -3 -40 -17 -54 -51 -53 -68
-84 -45 -84 17 0 11 -35 -10 -53 -11 -10 -20 -29 -20 -46 0 -32 -20 -46 -40
-28 -10 9 -11 9 -5 -2 4 -7 4 -16 -1 -20 -17 -12 -55 -91 -45 -91 6 0 11 -4
11 -9 0 -5 -9 -7 -20 -4 -17 5 -20 0 -22 -28 0 -19 0 -44 1 -56 1 -17 -2 -21
-13 -17 -11 4 -19 -3 -27 -23 -6 -15 -16 -38 -21 -49 -6 -12 -7 -31 -4 -42 4
-11 2 -23 -4 -27 -18 -11 -11 -35 11 -35 16 0 19 -4 14 -17 -4 -10 -10 -28
-12 -40 -3 -13 -8 -23 -12 -23 -3 0 -7 -12 -8 -26 0 -15 -7 -30 -14 -35 -9 -5
-12 -24 -10 -54 2 -42 1 -46 -16 -41 -16 5 -18 -1 -20 -55 -1 -53 1 -62 18
-66 10 -3 19 -9 19 -14 0 -5 13 -6 30 -3 26 6 31 3 40 -21 7 -20 15 -25 28
-21 26 9 -22 -28 -114 -89 -89 -58 -200 -115 -224 -115 -9 0 -22 -6 -28 -12
-8 -8 -53 -14 -118 -16 -89 -4 -114 -1 -164 17 -75 27 -165 78 -238 134 -45
34 -57 49 -56 70 0 15 -5 26 -10 24 -6 -2 -10 -12 -8 -22 2 -10 -1 -14 -7 -10
-19 11 -12 33 12 41 12 3 34 15 50 26 19 14 27 16 28 6 0 -7 4 -3 9 10 9 22
30 31 30 12 0 -24 18 -7 24 22 5 25 2 36 -10 45 -9 7 -14 19 -11 27 4 9 2 18
-4 22 -6 3 -8 13 -5 21 3 8 1 23 -4 34 -8 15 -7 19 5 19 8 0 15 5 15 10 0 6
-7 10 -15 10 -9 0 -15 9 -15 25 0 14 4 25 9 25 6 0 1 21 -10 46 -11 25 -18 53
-15 61 9 23 -3 53 -22 54 -9 0 -12 3 -6 5 15 6 -5 54 -22 54 -8 0 -10 13 -7
36 4 30 1 36 -16 41 -29 7 -28 33 2 26 20 -5 19 -2 -8 20 -24 21 -28 28 -17
38 18 19 15 40 -4 32 -14 -5 -16 -2 -10 20 5 20 3 27 -8 27 -19 0 -40 26 -26
35 18 11 11 35 -10 35 -11 0 -20 5 -20 11 0 6 9 8 20 4 11 -3 20 -2 20 3 0 6
-12 13 -26 16 -16 4 -24 12 -21 20 3 8 0 19 -6 25 -8 8 -8 14 0 22 9 9 19 4
42 -17 48 -46 59 -54 73 -54 8 1 7 5 -4 14 -10 7 -18 18 -18 24 0 5 -7 13 -15
16 -9 3 -15 11 -13 18 1 7 -6 26 -17 42 -28 41 -27 56 1 56 13 0 24 -6 24 -13
0 -14 27 -40 53 -50 10 -4 17 -17 17 -32 0 -16 6 -25 15 -25 9 0 18 -12 21
-30 4 -17 15 -32 26 -36 14 -4 16 -9 9 -18 -15 -18 29 -62 108 -110 67 -41
108 -44 73 -5 -28 30 -34 67 -11 74 10 4 27 1 38 -4 11 -6 35 -10 53 -10 32 2
32 2 -7 9 -22 4 -34 8 -26 9 11 1 10 5 -5 17 -18 15 -18 15 9 11 15 -2 27 -3
27 -1 0 2 -12 10 -27 19 l-28 16 27 -6 c45 -9 78 -24 78 -35 0 -5 12 -10 26
-10 14 0 23 4 19 9 -3 5 -1 12 5 16 5 3 10 1 10 -4 0 -6 5 -11 11 -11 5 0 7 5
4 10 -4 6 8 10 29 10 20 0 36 4 36 8 0 5 35 17 78 27 42 10 82 20 88 22 6 2
14 -5 17 -16 3 -12 0 -21 -6 -21 -7 -1 -25 -11 -40 -24 -25 -20 -26 -24 -13
-36 13 -10 16 -10 16 3 0 19 30 31 44 17 5 -5 18 -10 29 -10 10 0 15 -4 12
-10 -3 -5 -1 -10 4 -10 6 0 11 11 11 25 0 16 11 32 30 46 23 17 28 28 24 46
-5 18 -2 23 12 23 11 0 30 9 43 19 13 10 32 16 42 14 11 -3 19 0 19 6 0 6 11
11 24 11 14 0 31 7 39 15 8 7 27 17 42 21 15 4 30 15 32 25 3 10 9 16 14 13 5
-2 14 4 21 16 18 28 26 25 30 -12z m-1172 -3 c23 -17 28 -25 17 -25 -9 0 -17
5 -17 10 0 6 -14 10 -31 10 -27 0 -30 2 -19 15 15 18 10 20 50 -10z m454 -70
c3 -8 1 -15 -3 -15 -5 0 -11 7 -15 15 -3 8 -1 15 3 15 5 0 11 -7 15 -15z
m-349 -105 c3 -5 1 -10 -4 -10 -6 0 -11 5 -11 10 0 6 2 10 4 10 3 0 8 -4 11
-10z m690 0 c3 -5 -1 -10 -9 -10 -9 0 -16 5 -16 10 0 6 4 10 9 10 6 0 13 -4
16 -10z m-20 -40 c3 -5 -1 -10 -10 -10 -9 0 -13 5 -10 10 3 6 8 10 10 10 2 0
7 -4 10 -10z m-571 -49 c4 -5 -3 -7 -14 -4 -23 6 -26 13 -6 13 8 0 17 -4 20
-9z m1017 -278 c1 -5 4 -24 7 -43 3 -19 5 -51 4 -70 0 -19 -1 -52 -1 -72 0
-37 -14 -51 -24 -25 -3 7 -6 4 -6 -7 -1 -17 -6 -18 -48 -11 -27 4 -63 7 -80 7
-26 -1 -33 4 -33 19 0 13 7 19 23 19 20 1 20 2 5 11 -17 9 -17 12 3 38 12 16
33 34 47 41 19 8 23 13 13 20 -10 6 -7 12 15 25 16 9 21 14 12 11 -10 -3 -18
-2 -18 2 0 12 40 33 50 27 6 -4 10 -1 10 4 0 12 19 15 21 4z m-1318 -134 c-5
-26 -3 -28 22 -26 34 2 45 -20 15 -31 -21 -8 -21 -8 6 -21 25 -11 27 -14 11
-22 -9 -6 -17 -17 -17 -24 0 -8 -4 -15 -10 -15 -5 0 -10 5 -10 12 0 9 -3 9
-12 0 -17 -17 -20 -16 -57 18 -25 21 -32 34 -26 47 11 24 16 53 15 85 0 20 5
28 22 30 31 5 48 -18 41 -53z"/>
<path d="M3265 5381 c-3 -5 -1 -12 5 -16 5 -3 10 1 10 9 0 18 -6 21 -15 7z"/>
<path d="M3072 5361 c-9 -5 -3 -8 17 -7 17 1 31 4 31 9 0 10 -32 9 -48 -2z"/>
<path d="M3625 4780 c3 -5 11 -10 16 -10 6 0 7 5 4 10 -3 6 -11 10 -16 10 -6
0 -7 -4 -4 -10z"/>
<path d="M2515 4710 c3 -5 10 -10 16 -10 5 0 9 5 9 10 0 6 -7 10 -16 10 -8 0
-12 -4 -9 -10z"/>
<path d="M2945 4058 c-10 -10 -16 -21 -12 -24 9 -9 77 19 77 32 0 17 -44 12
-65 -8z"/>
<path d="M2625 4050 c3 -5 12 -7 20 -3 21 7 19 13 -6 13 -11 0 -18 -4 -14 -10z"/>
<path d="M2160 4010 c0 -5 5 -10 11 -10 5 0 7 5 4 10 -3 6 -8 10 -11 10 -2 0
-4 -4 -4 -10z"/>
<path d="M3560 4016 c0 -2 9 -6 20 -9 11 -3 20 -1 20 4 0 5 -9 9 -20 9 -11 0
-20 -2 -20 -4z"/>
<path d="M3620 4010 c0 -12 17 -12 45 0 17 7 15 9 -12 9 -18 1 -33 -3 -33 -9z"/>
<path d="M2815 3732 c-19 -13 -46 -63 -41 -75 2 -7 5 -6 5 4 1 8 15 25 31 37
17 13 30 27 30 32 0 12 -11 13 -25 2z"/>
<path d="M2790 3491 c0 -30 76 -49 105 -27 l20 15 -20 2 c-11 1 -27 1 -36 0
-9 -1 -28 3 -42 8 -15 6 -27 7 -27 2z"/>
<path d="M3348 3383 c-10 -2 -18 -13 -18 -24 0 -11 7 -19 18 -19 10 0 13 -3 6
-8 -6 -4 -7 -17 -3 -32 4 -14 8 -18 8 -10 1 9 8 3 17 -13 12 -23 21 -28 38
-23 16 4 29 -1 41 -14 9 -10 33 -24 52 -31 23 -7 32 -14 25 -21 -7 -7 -28 -5
-64 6 -29 9 -66 21 -83 26 -16 5 -51 12 -77 15 -41 6 -48 4 -60 -14 -7 -12
-21 -21 -31 -21 -14 0 -17 -5 -12 -22 5 -21 5 -21 -9 2 -15 25 -15 25 -16 3 0
-25 -15 -31 -23 -10 -3 7 -6 4 -6 -6 -1 -14 -5 -16 -18 -9 -12 7 -22 4 -37
-10 -17 -15 -33 -18 -86 -17 -81 3 -100 8 -100 25 0 8 -4 14 -10 14 -5 0 -10
-5 -10 -11 0 -5 -4 -8 -9 -5 -5 4 -32 -5 -59 -19 -27 -14 -57 -25 -66 -25 -9
0 -16 -4 -16 -8 0 -4 -12 -9 -26 -10 -57 -4 -71 -43 -25 -66 22 -12 31 -12 41
-3 10 9 13 9 17 0 2 -7 20 -17 39 -23 26 -9 32 -15 25 -24 -8 -9 0 -20 30 -39
48 -31 61 -34 53 -9 -4 12 -1 11 13 -5 12 -16 25 -21 42 -18 14 2 29 1 35 -4
19 -15 56 -20 56 -8 0 7 5 4 11 -6 7 -12 17 -16 30 -12 10 4 19 2 19 -4 0 -6
-11 -13 -25 -17 -21 -5 -23 -9 -13 -21 8 -10 22 -13 44 -8 30 5 32 4 30 -20
-2 -14 1 -25 5 -25 5 0 9 7 9 16 0 12 7 15 30 12 23 -3 27 -2 19 8 -8 10 -2
14 28 19 70 11 118 29 141 54 14 16 20 19 16 8 -5 -13 0 -17 20 -17 14 0 26 3
25 8 -4 29 16 53 50 58 29 5 40 13 54 42 10 21 19 50 20 66 1 16 8 31 16 34 9
3 11 -2 7 -16 -4 -11 -2 -23 4 -27 5 -3 10 1 10 9 0 8 9 24 21 35 19 18 22 34
19 94 -1 9 -6 17 -12 17 -6 0 -8 11 -6 24 3 16 -2 28 -13 37 -12 8 -15 15 -8
20 6 3 -1 9 -16 13 -30 8 -47 -1 -27 -13 16 -10 -1 -25 -35 -34 -25 -6 -29 3
-11 21 9 9 9 12 -2 12 -8 0 -26 14 -40 30 -14 17 -43 37 -65 45 -32 11 -35 14
-15 15 20 0 22 2 10 10 -8 5 -17 9 -20 9 -3 -1 -13 -3 -22 -6z m69 -109 c-3
-3 -12 -4 -19 -1 -8 3 -5 6 6 6 11 1 17 -2 13 -5z m-57 -215 c0 -6 9 -9 20 -6
11 3 20 1 20 -4 0 -5 -4 -9 -10 -9 -5 0 -12 -11 -16 -25 -3 -14 -10 -23 -14
-20 -4 3 -11 -7 -14 -20 -4 -14 -10 -23 -15 -20 -5 2 -11 -2 -15 -10 -3 -8
-15 -15 -26 -15 -11 0 -20 -5 -20 -11 0 -6 -9 -9 -19 -6 -12 3 -27 -3 -37 -14
-13 -15 -14 -19 -3 -19 11 0 11 -2 -1 -10 -8 -5 -28 -10 -45 -9 l-30 0 30 16
30 17 -25 6 c-14 4 -33 3 -42 -2 -24 -12 -58 -10 -58 3 0 7 -10 9 -25 5 -15
-4 -25 -2 -25 4 0 6 -16 18 -35 27 -19 9 -32 19 -30 23 2 4 -2 7 -10 7 -8 0
-15 -5 -16 -11 0 -6 -7 3 -14 19 -9 19 -14 24 -15 13 0 -10 -4 -18 -10 -18 -5
0 -7 13 -3 32 5 25 3 30 -8 23 -12 -7 -12 -5 -1 6 14 16 112 22 112 7 0 -5 5
-6 11 -2 7 4 41 6 78 5 47 -1 62 2 51 9 -12 8 -11 10 8 10 12 0 22 -4 22 -10
0 -5 5 -10 11 -10 5 0 7 5 4 10 -4 6 12 10 40 10 25 0 44 -4 41 -8 -2 -4 11
-6 30 -4 19 2 37 8 40 13 8 13 34 11 34 -2z"/>
<path d="M3195 3040 c3 -5 8 -10 11 -10 2 0 4 5 4 10 0 6 -5 10 -11 10 -5 0
-7 -4 -4 -10z"/>
<path d="M2920 3030 c0 -5 5 -10 10 -10 6 0 10 5 10 10 0 6 -4 10 -10 10 -5 0
-10 -4 -10 -10z"/>
<path d="M3680 3360 c0 -6 10 -21 23 -33 41 -39 66 -106 62 -164 -2 -29 0 -53
5 -53 24 0 40 15 40 37 0 34 -20 104 -36 123 -6 8 -15 25 -18 37 -11 36 -76
80 -76 53z"/>
<path d="M3290 3350 c0 -5 5 -10 11 -10 5 0 7 5 4 10 -3 6 -8 10 -11 10 -2 0
-4 -4 -4 -10z"/>
<path d="M3560 3015 c0 -8 5 -15 10 -15 6 0 10 7 10 15 0 8 -4 15 -10 15 -5 0
-10 -7 -10 -15z"/>
<path d="M2610 2740 c0 -5 7 -10 16 -10 8 0 13 -4 10 -8 -2 -4 0 -14 5 -22 7
-11 8 -8 5 10 -3 14 -5 28 -5 33 -1 11 -31 8 -31 -3z"/>
<path d="M2670 2709 c0 -5 5 -7 10 -4 6 3 10 8 10 11 0 2 -4 4 -10 4 -5 0 -10
-5 -10 -11z"/>
<path d="M2670 2665 c0 -8 5 -15 10 -15 6 0 10 7 10 15 0 8 -4 15 -10 15 -5 0
-10 -7 -10 -15z"/>
<path d="M3740 4369 c0 -5 5 -7 10 -4 6 3 10 8 10 11 0 2 -4 4 -10 4 -5 0 -10
-5 -10 -11z"/>
<path d="M1980 3563 c0 -10 5 -25 10 -33 7 -11 10 -7 10 18 0 17 -4 32 -10 32
-5 0 -10 -8 -10 -17z"/>
<path d="M3540 1941 c-14 -10 -40 -21 -59 -25 -35 -6 -61 -22 -61 -37 0 -14
27 -11 43 5 8 8 29 21 48 29 19 8 40 21 48 30 17 22 12 21 -19 -2z"/>
<path d="M3360 1920 c0 -5 4 -10 9 -10 6 0 13 5 16 10 3 6 -1 10 -9 10 -9 0
-16 -4 -16 -10z"/>
<path d="M3040 1896 c0 -2 7 -7 16 -10 8 -3 12 -2 9 4 -6 10 -25 14 -25 6z"/>
<path d="M3350 1874 c0 -8 6 -17 14 -20 8 -3 12 -12 9 -20 -3 -8 0 -14 6 -14
6 0 11 5 11 11 0 6 7 9 15 6 8 -4 17 -2 20 3 3 5 -12 18 -35 29 -32 16 -40 16
-40 5z"/>
<path d="M2840 1813 c0 -19 34 -92 40 -88 4 3 13 -2 20 -10 7 -8 25 -15 40
-15 28 0 40 -14 49 -57 1 -5 10 2 21 15 12 14 25 21 32 16 7 -4 5 2 -6 12 -13
14 -20 15 -23 7 -3 -7 -11 -13 -20 -13 -11 0 -13 7 -8 30 5 23 3 30 -8 30 -9
0 -18 6 -21 13 -5 10 -7 10 -12 0 -8 -18 -27 -16 -20 2 3 8 2 15 -2 15 -5 0
-17 8 -28 18 -21 20 -54 35 -54 25z"/>
<path d="M2988 1803 c6 -2 18 -2 25 0 6 3 1 5 -13 5 -14 0 -19 -2 -12 -5z"/>
<path d="M3310 1799 c0 -5 5 -7 10 -4 6 3 10 8 10 11 0 2 -4 4 -10 4 -5 0 -10
-5 -10 -11z"/>
<path d="M3424 1773 c-16 -3 -20 -9 -17 -24 6 -23 21 -25 29 -4 4 8 13 15 21
15 8 0 11 5 8 10 -3 6 -9 9 -13 9 -4 -1 -17 -4 -28 -6z"/>
<path d="M2701 1761 c-10 -6 -10 -10 -1 -16 13 -8 24 -1 19 14 -3 6 -10 7 -18
2z"/>
<path d="M3548 1763 c7 -3 16 -2 19 1 4 3 -2 6 -13 5 -11 0 -14 -3 -6 -6z"/>
<path d="M3350 1732 c0 -15 -4 -21 -11 -16 -19 12 -81 13 -101 3 -10 -5 -18
-16 -18 -24 0 -7 -6 -15 -12 -18 -7 -2 3 -4 22 -5 19 -1 56 -4 83 -8 l47 -6 0
31 c0 23 4 29 15 25 11 -5 15 1 15 19 0 20 -5 25 -20 24 -14 -1 -20 -8 -20
-25z m-10 -42 c0 -5 -5 -10 -11 -10 -5 0 -7 5 -4 10 3 6 8 10 11 10 2 0 4 -4
4 -10z"/>
<path d="M2945 1670 c3 -5 8 -10 11 -10 2 0 4 5 4 10 0 6 -5 10 -11 10 -5 0
-7 -4 -4 -10z"/>
<path d="M3100 1606 c0 -2 7 -7 16 -10 8 -3 12 -2 9 4 -6 10 -25 14 -25 6z"/>
<path d="M3175 1500 c-3 -5 1 -10 9 -10 9 0 16 5 16 10 0 6 -4 10 -9 10 -6 0
-13 -4 -16 -10z"/>
<path d="M3120 1470 c0 -6 7 -10 15 -10 8 0 15 2 15 4 0 2 -7 6 -15 10 -8 3
-15 1 -15 -4z"/>
<path d="M4983 6309 c11 -7 23 -7 35 0 14 9 11 10 -18 10 -29 0 -32 -1 -17
-10z"/>
<path d="M4640 6269 c0 -5 5 -7 10 -4 6 3 10 8 10 11 0 2 -4 4 -10 4 -5 0 -10
-5 -10 -11z"/>
<path d="M4180 6180 c0 -5 7 -10 16 -10 8 0 12 5 9 10 -3 6 -10 10 -16 10 -5
0 -9 -4 -9 -10z"/>
<path d="M5303 6120 c0 -25 2 -35 4 -22 2 12 2 32 0 45 -2 12 -4 2 -4 -23z"/>
<path d="M5272 6120 c0 -19 2 -27 5 -17 2 9 2 25 0 35 -3 9 -5 1 -5 -18z"/>
<path d="M5556 6065 c-8 -21 33 -42 45 -24 5 8 9 20 9 27 0 17 -47 15 -54 -3z"/>
<path d="M5825 5930 c-3 -5 -1 -10 4 -10 6 0 11 5 11 10 0 6 -2 10 -4 10 -3 0
-8 -4 -11 -10z"/>
<path d="M6020 5913 c0 -5 5 -15 10 -23 9 -13 11 -13 20 0 15 22 12 30 -10 30
-11 0 -20 -3 -20 -7z"/>
<path d="M6385 5650 c-3 -5 -1 -10 4 -10 6 0 11 5 11 10 0 6 -2 10 -4 10 -3 0
-8 -4 -11 -10z"/>
<path d="M6210 1446 c0 -2 7 -9 15 -16 13 -11 14 -10 9 4 -5 14 -24 23 -24 12z"/>
</g>
</svg>
